<svg width="12" height="15" viewBox="0 0 8 10" fill="none" xmlns="http://www.w3.org/2000/svg">
<path fill-rule="evenodd" clip-rule="evenodd" d="M4.07866 5.25002C3.15532 5.25002 2.40837 4.50221 2.40837 3.57965C2.40837 2.65757 3.15532 1.90911 4.07866 1.90911C5.00167 1.90911 5.74927 2.65757 5.74927 3.57965C5.74927 4.50221 5.00167 5.25002 4.07866 5.25002ZM3.98394 0C2.04227 0 0.5 1.63678 0.5 3.65569C0.5 6.40791 3.45078 9.25191 3.45078 9.25191C3.84777 9.62783 4.09437 9.65847 4.51646 9.25191C4.51646 9.25191 7.5 6.40791 7.5 3.65569C7.5 1.63678 5.92544 0 3.98394 0Z" fill="#FF5722"/>
</svg>
